<svg width="31.88" height="32" xmlns="http://www.w3.org/2000/svg" fill="none">

 <g>
  <title>Layer 1</title>
  <path id="svg_1" fill="#8047F8" d="m24.2175,4.10239c-0.3243,-0.49664 -0.7981,-0.5109 -1.338,-0.52716c-0.0612,-0.00184 -0.1232,-0.0037 -0.1859,-0.0063c-0.0478,-0.0022 -0.1005,-0.00135 -0.1556,-0.00047c-0.219,0.00352 -0.4751,0.00763 -0.6041,-0.17634c-0.1496,-0.21329 -0.1354,-0.62549 -0.1237,-0.96577c0.0037,-0.10753 0.0071,-0.20794 0.0051,-0.29255c-0.021,-0.79048 -0.0649,-1.63017 -0.37,-1.91088c-0.2301,-0.21061 -0.9185,-0.18143 -1.5533,-0.15452c-0.2058,0.00872 -0.406,0.0172 -0.5831,0.0172l-13.51294,0c-0.27207,0 -0.55727,-0.02215 -0.83749,-0.04392c-0.54602,-0.04241 -1.07314,-0.08336 -1.44747,0.04392c-0.54325,0.18563 -0.58004,1.16107 -0.61467,2.07959l-0.00187,0.04942c-0.02908,0.75827 -0.217,1.34338 -0.83981,1.28445c-0.72436,-0.06745 -1.44515,-0.08871 -1.77266,0.56688c-0.3868,0.77567 -0.30703,1.58764 -0.16414,3.04198c0.02041,0.20775 0.04211,0.4286 0.06392,0.66433l24.24463,0c0.0139,-0.1723 0.0286,-0.34239 0.0432,-0.50972c0.1135,-1.30847 0.2124,-2.44851 -0.2521,-3.16014z"/>
  <path id="svg_2" fill="#8047F8" d="m2.06987,9.21467c0.37865,5.12483 0.75317,10.25543 1.1277,15.38623l0.00023,0.0031c0.20335,2.7858 0.40671,5.5716 0.61073,8.3566l0.77359,0c0.05271,0.4359 0.11303,0.9741 0.17662,1.5415c0.12909,1.1518 0.2717,2.4243 0.3916,3.2062l0.08556,0c0.78797,-0.2883 6.2353,-2.6167 6.2377,-11.8865c-0.001,-0.0264 -0.0001,-0.0529 0.0026,-0.0791l-1.3458,0c-0.0651,-0.0006 -0.1283,-0.0224 -0.1797,-0.0619c-0.05143,-0.0395 -0.08829,-0.0947 -0.10493,-0.157c-0.13114,-0.3239 -0.23689,-0.6574 -0.31629,-0.9974c-0.79171,0.4472 -1.42042,1.13 -1.79652,1.9511c-0.35702,-0.841 -0.40375,-1.7792 -0.13203,-2.6508c0.27173,-0.8716 0.84463,-1.621 1.61859,-2.1174c0.00997,-2.705 1.02278,-5.3125 2.84658,-7.3289l0.0285,-0.0251c0.053,-0.0458 0.1209,-0.0713 0.1913,-0.0719c0.0407,0.0004 0.0809,0.0091 0.118,0.0256c0.0376,0.0167 0.0712,0.041 0.0987,0.0714c1.8452,2.0192 2.8526,4.6517 2.8213,7.3727c0.7884,0.4825 1.373,1.2314 1.6452,2.1077c0.2722,0.8763 0.2136,1.8205 -0.1649,2.6573c-0.3741,-0.8224 -1.0034,-1.5058 -1.7966,-1.951c-0.0484,0.3295 -0.1377,0.6519 -0.2657,0.9599c-0.0442,0.1313 -0.1328,0.2157 -0.2214,0.2157l-1.4352,0c0.0023,0.0157 0.0039,0.0315 0.0048,0.0474l0.0006,0.0036l0,0.0077c0.0005,0.0136 0.0005,0.0273 0,0.041c0.0197,9.5359 5.8113,11.7004 6.2995,11.8659l0.167,0c0.0426,-0.7511 0.1814,-1.7875 0.3167,-2.7979c0.0932,-0.6962 0.1848,-1.3802 0.2421,-1.9498l0.7825,0c0.2505,-3.5079 0.5081,-7.006 0.7657,-10.5042l0.0002,-0.0019l0.0001,-0.001c0.3295,-4.4746 0.659,-8.9493 0.9736,-13.4448l-20.51812,0c-0.05906,0.01154 -0.05503,0.10815 -0.05011,0.20597zm10.21603,5.06873l-0.0015,0l0.0031,0l-0.0016,0z" clip-rule="evenodd" fill-rule="evenodd"/>
 </g>
</svg>